<svg width="29" height="23" viewBox="0 0 29 23" fill="none" xmlns="http://www.w3.org/2000/svg">
<path d="M7.67295 22.9279C7.07084 22.9279 6.57524 22.721 6.18616 22.3073C5.79711 21.8935 5.60259 21.3808 5.60259 20.7691V7.71725L2.86726 1.33974H0.669869C0.48008 1.33974 0.320995 1.27497 0.192613 1.14542C0.0642044 1.01585 0 0.855318 0 0.663813C0 0.472309 0.0642044 0.313792 0.192613 0.18826C0.320995 0.0627545 0.48008 0 0.669869 0H3.00022C3.23263 0 3.44566 0.064693 3.63933 0.194078C3.83297 0.323489 3.97822 0.489858 4.07507 0.693184L6.21209 5.66347H27.4018C27.8393 5.66347 28.1721 5.84921 28.4003 6.22068C28.6285 6.59216 28.6408 6.97411 28.4371 7.36654L24.4971 15.1361C25.5046 15.2037 26.3542 15.6139 27.0461 16.3665C27.738 17.1191 28.0839 17.9976 28.0839 19.0019C28.0839 20.0906 27.7088 21.0161 26.9587 21.7784C26.2085 22.5407 25.2963 22.9218 24.222 22.9218C23.1292 22.9218 22.2071 22.5414 21.4557 21.7804C20.7043 21.0195 20.3286 20.1008 20.3286 19.0244C20.3286 18.5049 20.4159 18.0197 20.5905 17.569C20.765 17.1183 21.0157 16.7225 21.3425 16.3814L13.6786 15.7176L9.67559 21.6754C9.44216 22.0287 9.149 22.3257 8.79613 22.5666C8.44326 22.8075 8.06886 22.9279 7.67295 22.9279ZM22.936 15.2152L27.1045 7.0032L6.75961 7.04279L8.94556 12.0861C9.18799 12.6653 9.56583 13.1449 10.0791 13.5248C10.5923 13.9048 11.239 14.1333 12.0192 14.2104L22.936 15.2152ZM7.67006 21.5486C7.88521 21.5486 8.18462 21.3371 8.56829 20.9143L12.1684 15.5654C11.1581 15.4511 10.2778 15.1836 9.52743 14.7631C8.77704 14.3425 8.21238 13.6857 7.83346 12.7925L6.94232 10.7545V20.7782C6.94232 21.0181 7.00897 21.2064 7.14226 21.3433C7.27558 21.4802 7.45151 21.5486 7.67006 21.5486ZM24.1638 21.5475C24.8961 21.5475 25.5093 21.3011 26.0032 20.8082C26.4972 20.3153 26.7442 19.7167 26.7442 19.0125C26.7442 18.2802 26.4994 17.667 26.0099 17.1731C25.5203 16.6791 24.908 16.4322 24.173 16.4322C23.4663 16.4322 22.8656 16.6769 22.3708 17.1665C21.8761 17.656 21.6288 18.2683 21.6288 19.0033C21.6288 19.71 21.8752 20.3108 22.3681 20.8055C22.8611 21.3002 23.4596 21.5475 24.1638 21.5475Z" fill="#D36306" fill-opacity="0.8"/>
</svg>
