<svg width="35" height="35" viewBox="0 0 35 35" fill="none" xmlns="http://www.w3.org/2000/svg">
<path d="M11.7772 0.959371C8.23902 2.1868 5.1877 4.51649 3.07143 7.60626C0.955156 10.696 -0.114519 14.383 0.0195228 18.1257C0.153564 21.8683 1.48426 25.4693 3.81614 28.3998C6.14803 31.3302 9.35819 33.4357 12.9751 34.4068C15.9074 35.1635 18.9796 35.1967 21.9276 34.5037C24.5982 33.9038 27.0673 32.6207 29.093 30.7799C31.2013 28.8055 32.7316 26.2939 33.5194 23.515C34.3754 20.4929 34.5278 17.315 33.9648 14.2249H17.4984V21.0555H27.0347C26.8441 22.1449 26.4357 23.1847 25.8338 24.1126C25.232 25.0405 24.4492 25.8375 23.5322 26.4558C22.3679 27.2264 21.0551 27.7447 19.6784 27.9774C18.2978 28.2342 16.8816 28.2342 15.501 27.9774C14.1015 27.6884 12.7777 27.1108 11.614 26.2815C9.7442 24.958 8.34026 23.0776 7.60249 20.9089C6.85245 18.6995 6.85245 16.3043 7.60249 14.0949C8.12765 12.5462 8.99581 11.1362 10.1422 9.96999C11.454 8.61092 13.1149 7.63945 14.9426 7.16216C16.7702 6.68488 18.694 6.72022 20.5029 7.26431C21.916 7.6979 23.2082 8.4558 24.2764 9.47754C25.3517 8.40782 26.4251 7.33532 27.4967 6.26006C28.05 5.68185 28.6531 5.13131 29.1981 4.53927C27.5673 3.02188 25.6532 1.84108 23.5654 1.0645C19.7634 -0.316032 15.6033 -0.353133 11.7772 0.959371Z" fill="#090913"/>
<path d="M11.7773 0.959372C15.603 -0.354023 19.7631 -0.317899 23.5655 1.06173C25.6536 1.84359 27.5669 3.03007 29.1954 4.55311C28.6421 5.14515 28.0583 5.69845 27.494 6.27389C26.4205 7.34547 25.3481 8.41335 24.2765 9.47755C23.2083 8.4558 21.9161 7.6979 20.5029 7.26431C18.6946 6.71831 16.7709 6.68093 14.9428 7.15626C13.1147 7.63159 11.4528 8.60128 10.1395 9.95892C8.9931 11.1251 8.12494 12.5352 7.59978 14.0838L1.86475 9.64354C3.91754 5.57275 7.47183 2.4589 11.7773 0.959372Z" fill="#E33629"/>
<path d="M0.343043 14.0423C0.651068 12.5145 1.16284 11.035 1.86464 9.64349L7.59968 14.0949C6.84964 16.3043 6.84964 18.6994 7.59968 20.9088C5.68892 22.3843 3.77724 23.8672 1.86464 25.3574C0.108304 21.8614 -0.427348 17.8781 0.343043 14.0423Z" fill="#F8BD00"/>
<path d="M17.4988 14.2221H33.9652C34.5282 17.3122 34.3758 20.4901 33.5198 23.5121C32.732 26.2911 31.2017 28.8027 29.0934 30.7771C27.2425 29.3329 25.3834 27.8999 23.5326 26.4557C24.4502 25.8368 25.2334 25.039 25.8352 24.1101C26.4371 23.1812 26.8452 22.1403 27.035 21.0499H17.4988C17.496 18.7758 17.4988 16.499 17.4988 14.2221Z" fill="#587DBD"/>
<path d="M1.86182 25.3574C3.77442 23.8819 5.6861 22.3991 7.59685 20.9088C8.33609 23.0783 9.74204 24.9587 11.6139 26.2814C12.7812 27.1069 14.1079 27.6798 15.5092 27.9635C16.8898 28.2203 18.306 28.2203 19.6866 27.9635C21.0633 27.7308 22.3761 27.2125 23.5404 26.4419C25.3912 27.886 27.2503 29.3191 29.1012 30.7632C27.0758 32.605 24.6067 33.8891 21.9358 34.4898C18.9878 35.1828 15.9156 35.1496 12.9833 34.3929C10.6641 33.7737 8.49785 32.6821 6.62026 31.1865C4.63314 29.6085 3.01003 27.6202 1.86182 25.3574Z" fill="#319F43"/>
</svg>
