<svg width="198" height="48" viewBox="0 0 198 48" fill="none" xmlns="http://www.w3.org/2000/svg">
<path d="M75.3008 7.20312H79.8271C80.7998 7.20312 81.6289 7.34961 82.3145 7.64258C83 7.93555 83.5244 8.36914 83.8877 8.94336C84.2568 9.51172 84.4414 10.2148 84.4414 11.0527C84.4414 11.6914 84.3242 12.2539 84.0898 12.7402C83.8555 13.2266 83.5244 13.6367 83.0967 13.9707C82.6689 14.2988 82.1592 14.5537 81.5674 14.7354L80.8994 15.0605H76.8301L76.8125 13.3115H79.8623C80.3896 13.3115 80.8291 13.2178 81.1807 13.0303C81.5322 12.8428 81.7959 12.5879 81.9717 12.2656C82.1533 11.9375 82.2441 11.5684 82.2441 11.1582C82.2441 10.7129 82.1562 10.3262 81.9805 9.99805C81.8105 9.66406 81.5469 9.40918 81.1895 9.2334C80.832 9.05176 80.3779 8.96094 79.8271 8.96094H77.5068V20H75.3008V7.20312ZM82.6045 20L79.5986 14.252L81.9102 14.2432L84.96 19.8857V20H82.6045ZM90.4221 20.1758C89.719 20.1758 89.0833 20.0615 88.5149 19.833C87.9524 19.5986 87.4719 19.2734 87.0735 18.8574C86.6809 18.4414 86.3791 17.9521 86.1682 17.3896C85.9573 16.8271 85.8518 16.2207 85.8518 15.5703V15.2188C85.8518 14.4746 85.9602 13.8008 86.177 13.1973C86.3938 12.5938 86.6956 12.0781 87.0823 11.6504C87.469 11.2168 87.926 10.8857 88.4534 10.6572C88.9807 10.4287 89.552 10.3145 90.1672 10.3145C90.8469 10.3145 91.4416 10.4287 91.9514 10.6572C92.4612 10.8857 92.8831 11.208 93.217 11.624C93.5569 12.0342 93.8088 12.5234 93.9729 13.0918C94.1428 13.6602 94.2278 14.2871 94.2278 14.9727V15.8779H86.8801V14.3574H92.136V14.1904C92.1243 13.8096 92.0481 13.4521 91.9075 13.1182C91.7727 12.7842 91.5647 12.5146 91.2834 12.3096C91.0022 12.1045 90.6272 12.002 90.1584 12.002C89.8069 12.002 89.4934 12.0781 89.218 12.2305C88.9485 12.377 88.7229 12.5908 88.5413 12.8721C88.3596 13.1533 88.219 13.4932 88.1194 13.8916C88.0256 14.2842 87.9788 14.7266 87.9788 15.2188V15.5703C87.9788 15.9863 88.0344 16.373 88.1458 16.7305C88.2629 17.082 88.4329 17.3896 88.6555 17.6533C88.8782 17.917 89.1477 18.125 89.4641 18.2773C89.7805 18.4238 90.1409 18.4971 90.5452 18.4971C91.0549 18.4971 91.509 18.3945 91.9075 18.1895C92.3059 17.9844 92.6516 17.6943 92.9446 17.3193L94.0608 18.4004C93.8557 18.6992 93.5891 18.9863 93.261 19.2617C92.9329 19.5312 92.5315 19.751 92.0569 19.9209C91.5881 20.0908 91.0432 20.1758 90.4221 20.1758ZM101.017 17.4248C101.017 17.2139 100.964 17.0234 100.859 16.8535C100.753 16.6777 100.551 16.5195 100.252 16.3789C99.9595 16.2383 99.5259 16.1094 98.9517 15.9922C98.4478 15.8809 97.9849 15.749 97.563 15.5967C97.147 15.4385 96.7895 15.248 96.4907 15.0254C96.1919 14.8027 95.9604 14.5391 95.7964 14.2344C95.6323 13.9297 95.5503 13.5781 95.5503 13.1797C95.5503 12.793 95.6353 12.4268 95.8052 12.0811C95.9751 11.7354 96.2183 11.4307 96.5347 11.167C96.8511 10.9033 97.2349 10.6953 97.686 10.543C98.1431 10.3906 98.6528 10.3145 99.2153 10.3145C100.012 10.3145 100.695 10.4492 101.263 10.7188C101.837 10.9824 102.277 11.3428 102.582 11.7998C102.886 12.251 103.039 12.7607 103.039 13.3291H100.92C100.92 13.0771 100.856 12.8428 100.727 12.626C100.604 12.4033 100.417 12.2246 100.165 12.0898C99.9126 11.9492 99.5962 11.8789 99.2153 11.8789C98.852 11.8789 98.5503 11.9375 98.3101 12.0547C98.0757 12.166 97.8999 12.3125 97.7827 12.4941C97.6714 12.6758 97.6157 12.875 97.6157 13.0918C97.6157 13.25 97.645 13.3936 97.7036 13.5225C97.7681 13.6455 97.8735 13.7598 98.02 13.8652C98.1665 13.9648 98.3657 14.0586 98.6177 14.1465C98.8755 14.2344 99.1978 14.3193 99.5845 14.4014C100.311 14.5537 100.935 14.75 101.457 14.9902C101.984 15.2246 102.388 15.5293 102.669 15.9043C102.951 16.2734 103.091 16.7422 103.091 17.3105C103.091 17.7324 103 18.1191 102.819 18.4707C102.643 18.8164 102.385 19.1182 102.045 19.376C101.706 19.6279 101.298 19.8242 100.824 19.9648C100.355 20.1055 99.8276 20.1758 99.2417 20.1758C98.3804 20.1758 97.6509 20.0234 97.0532 19.7188C96.4556 19.4082 96.0015 19.0127 95.6909 18.5322C95.3862 18.0459 95.2339 17.542 95.2339 17.0205H97.2817C97.3052 17.4131 97.4136 17.7266 97.6069 17.9609C97.8061 18.1895 98.0522 18.3564 98.3452 18.4619C98.644 18.5615 98.9517 18.6113 99.2681 18.6113C99.6489 18.6113 99.9683 18.5615 100.226 18.4619C100.484 18.3564 100.68 18.2158 100.815 18.04C100.95 17.8584 101.017 17.6533 101.017 17.4248ZM109.107 10.4902V12.0371H103.746V10.4902H109.107ZM105.293 8.16113H107.411V17.3721C107.411 17.665 107.452 17.8906 107.534 18.0488C107.622 18.2012 107.742 18.3037 107.894 18.3564C108.047 18.4092 108.225 18.4355 108.43 18.4355C108.577 18.4355 108.718 18.4268 108.852 18.4092C108.987 18.3916 109.095 18.374 109.177 18.3564L109.186 19.9736C109.01 20.0264 108.805 20.0732 108.571 20.1143C108.343 20.1553 108.079 20.1758 107.78 20.1758C107.294 20.1758 106.863 20.0908 106.488 19.9209C106.113 19.7451 105.82 19.4609 105.609 19.0684C105.398 18.6758 105.293 18.1543 105.293 17.5039V8.16113ZM112.671 12.3008V20H110.553V10.4902H112.574L112.671 12.3008ZM115.58 10.4287L115.562 12.3975C115.434 12.374 115.293 12.3564 115.141 12.3447C114.994 12.333 114.848 12.3271 114.701 12.3271C114.338 12.3271 114.019 12.3799 113.743 12.4854C113.468 12.585 113.236 12.7314 113.049 12.9248C112.867 13.1123 112.727 13.3408 112.627 13.6104C112.527 13.8799 112.469 14.1816 112.451 14.5156L111.968 14.5508C111.968 13.9531 112.026 13.3994 112.144 12.8896C112.261 12.3799 112.437 11.9316 112.671 11.5449C112.911 11.1582 113.21 10.8564 113.567 10.6396C113.931 10.4229 114.35 10.3145 114.824 10.3145C114.953 10.3145 115.091 10.3262 115.237 10.3496C115.39 10.373 115.504 10.3994 115.58 10.4287ZM119.627 18.9629L122.211 10.4902H124.479L120.664 21.4502C120.576 21.6846 120.462 21.9395 120.322 22.2148C120.181 22.4902 119.996 22.751 119.768 22.9971C119.545 23.249 119.267 23.4512 118.933 23.6035C118.599 23.7617 118.195 23.8408 117.72 23.8408C117.532 23.8408 117.351 23.8232 117.175 23.7881C117.005 23.7588 116.844 23.7266 116.692 23.6914L116.683 22.0742C116.741 22.0801 116.812 22.0859 116.894 22.0918C116.982 22.0977 117.052 22.1006 117.105 22.1006C117.456 22.1006 117.749 22.0566 117.984 21.9688C118.218 21.8867 118.408 21.752 118.555 21.5645C118.707 21.377 118.836 21.125 118.942 20.8086L119.627 18.9629ZM118.168 10.4902L120.427 17.6094L120.805 19.8418L119.337 20.2197L115.883 10.4902H118.168Z" fill="#F2F2F2"/>
<path opacity="0.9" d="M40.1553 32.0469H43.4502C44.1976 32.0469 44.8288 32.1608 45.3438 32.3887C45.8633 32.6165 46.2575 32.9538 46.5264 33.4004C46.7998 33.8424 46.9365 34.387 46.9365 35.0342C46.9365 35.4899 46.8431 35.9069 46.6562 36.2852C46.474 36.6589 46.2096 36.9779 45.8633 37.2422C45.5215 37.502 45.1113 37.6956 44.6328 37.8232L44.2637 37.9668H41.167L41.1533 36.8936H43.4912C43.9652 36.8936 44.3594 36.8115 44.6738 36.6475C44.9883 36.4788 45.2253 36.2533 45.3848 35.9707C45.5443 35.6882 45.624 35.376 45.624 35.0342C45.624 34.6514 45.5488 34.3164 45.3984 34.0293C45.248 33.7422 45.0111 33.5212 44.6875 33.3662C44.3685 33.2067 43.9561 33.127 43.4502 33.127H41.4746V42H40.1553V32.0469ZM45.9727 42L43.5527 37.4883L44.9268 37.4814L47.3809 41.918V42H45.9727ZM51.5062 42.1367C50.9912 42.1367 50.5241 42.0501 50.1048 41.877C49.6901 41.6992 49.3323 41.4508 49.0315 41.1318C48.7353 40.8128 48.5075 40.4346 48.348 39.9971C48.1884 39.5596 48.1087 39.0811 48.1087 38.5615V38.2744C48.1087 37.6729 48.1976 37.1374 48.3753 36.668C48.553 36.194 48.7946 35.793 49.0999 35.4648C49.4052 35.1367 49.7516 34.8883 50.139 34.7197C50.5263 34.5511 50.9274 34.4668 51.3421 34.4668C51.8707 34.4668 52.3265 34.5579 52.7093 34.7402C53.0967 34.9225 53.4134 35.1777 53.6595 35.5059C53.9056 35.8294 54.0879 36.2122 54.2064 36.6543C54.3248 37.0918 54.3841 37.5703 54.3841 38.0898V38.6572H48.8606V37.625H53.1194V37.5293C53.1012 37.2012 53.0328 36.8822 52.9144 36.5723C52.8004 36.2624 52.6181 36.0072 52.3675 35.8066C52.1168 35.6061 51.775 35.5059 51.3421 35.5059C51.055 35.5059 50.7907 35.5674 50.5491 35.6904C50.3076 35.8089 50.1002 35.9867 49.9271 36.2236C49.7539 36.4606 49.6194 36.75 49.5237 37.0918C49.428 37.4336 49.3802 37.8278 49.3802 38.2744V38.5615C49.3802 38.9124 49.428 39.2428 49.5237 39.5527C49.624 39.8581 49.7675 40.127 49.9544 40.3594C50.1458 40.5918 50.3759 40.7741 50.6448 40.9062C50.9183 41.0384 51.2282 41.1045 51.5745 41.1045C52.0211 41.1045 52.3994 41.0133 52.7093 40.8311C53.0192 40.6488 53.2903 40.4049 53.5228 40.0996L54.2884 40.708C54.1289 40.9495 53.9261 41.1797 53.68 41.3984C53.4339 41.6172 53.1308 41.7949 52.7708 41.9316C52.4153 42.0684 51.9938 42.1367 51.5062 42.1367ZM60.0133 40.0381C60.0133 39.8558 59.9723 39.6872 59.8902 39.5322C59.8128 39.3727 59.651 39.2292 59.4049 39.1016C59.1634 38.9694 58.7988 38.8555 58.3111 38.7598C57.901 38.6732 57.5296 38.5706 57.1969 38.4521C56.8688 38.3337 56.5885 38.1901 56.3561 38.0215C56.1282 37.8529 55.9527 37.6546 55.8297 37.4268C55.7066 37.1989 55.6451 36.9323 55.6451 36.627C55.6451 36.3353 55.7089 36.0596 55.8365 35.7998C55.9687 35.54 56.1533 35.3099 56.3902 35.1094C56.6318 34.9089 56.9212 34.7516 57.2584 34.6377C57.5956 34.5238 57.9716 34.4668 58.3863 34.4668C58.9788 34.4668 59.4846 34.5716 59.9039 34.7812C60.3232 34.9909 60.6445 35.2712 60.8678 35.6221C61.0911 35.9684 61.2027 36.3535 61.2027 36.7773H59.9381C59.9381 36.5723 59.8766 36.374 59.7535 36.1826C59.635 35.9867 59.4596 35.8249 59.2272 35.6973C58.9993 35.5697 58.719 35.5059 58.3863 35.5059C58.0354 35.5059 57.7506 35.5605 57.5318 35.6699C57.3177 35.7747 57.1604 35.9092 57.0602 36.0732C56.9645 36.2373 56.9166 36.4105 56.9166 36.5928C56.9166 36.7295 56.9394 36.8525 56.985 36.9619C57.0351 37.0667 57.1217 37.1647 57.2447 37.2559C57.3678 37.3424 57.541 37.4245 57.7643 37.502C57.9876 37.5794 58.2724 37.6569 58.6188 37.7344C59.2249 37.8711 59.7239 38.0352 60.1158 38.2266C60.5078 38.418 60.7994 38.6527 60.9908 38.9307C61.1822 39.2087 61.2779 39.5459 61.2779 39.9424C61.2779 40.266 61.2096 40.5622 61.0729 40.8311C60.9407 41.0999 60.747 41.3324 60.4918 41.5283C60.2412 41.7197 59.9404 41.8701 59.5895 41.9795C59.2431 42.0843 58.8535 42.1367 58.4205 42.1367C57.7688 42.1367 57.2174 42.0205 56.7662 41.7881C56.315 41.5557 55.9733 41.2549 55.7408 40.8857C55.5084 40.5166 55.3922 40.127 55.3922 39.7168H56.6637C56.6819 40.0632 56.7822 40.3389 56.9645 40.5439C57.1468 40.7445 57.3701 40.888 57.6344 40.9746C57.8987 41.0566 58.1608 41.0977 58.4205 41.0977C58.7669 41.0977 59.0563 41.0521 59.2887 40.9609C59.5257 40.8698 59.7057 40.7445 59.8287 40.585C59.9518 40.4255 60.0133 40.2432 60.0133 40.0381ZM65.8818 34.6035V35.5742H61.8827V34.6035H65.8818ZM63.2362 32.8057H64.5009V40.168C64.5009 40.4186 64.5396 40.6077 64.6171 40.7354C64.6946 40.863 64.7948 40.9473 64.9179 40.9883C65.0409 41.0293 65.1731 41.0498 65.3144 41.0498C65.4192 41.0498 65.5286 41.0407 65.6425 41.0225C65.761 40.9997 65.8498 40.9814 65.9091 40.9678L65.9159 42C65.8157 42.0319 65.6835 42.0615 65.5194 42.0889C65.3599 42.1208 65.1663 42.1367 64.9384 42.1367C64.6285 42.1367 64.3437 42.0752 64.0839 41.9521C63.8241 41.8291 63.6168 41.624 63.4618 41.3369C63.3114 41.0452 63.2362 40.6533 63.2362 40.1611V32.8057ZM71.5725 40.7354V36.9277C71.5725 36.6361 71.5132 36.3831 71.3947 36.1689C71.2808 35.9502 71.1076 35.7816 70.8752 35.6631C70.6428 35.5446 70.3557 35.4854 70.0139 35.4854C69.6949 35.4854 69.4146 35.54 69.1731 35.6494C68.9361 35.7588 68.7492 35.9023 68.6125 36.0801C68.4804 36.2578 68.4143 36.4492 68.4143 36.6543H67.1496C67.1496 36.39 67.218 36.1279 67.3547 35.8682C67.4914 35.6084 67.6874 35.3737 67.9426 35.1641C68.2024 34.9499 68.5123 34.7812 68.8723 34.6582C69.2369 34.5306 69.6425 34.4668 70.0891 34.4668C70.6268 34.4668 71.1008 34.5579 71.511 34.7402C71.9257 34.9225 72.2492 35.1982 72.4817 35.5674C72.7186 35.932 72.8371 36.39 72.8371 36.9414V40.3867C72.8371 40.6328 72.8576 40.8949 72.8986 41.1729C72.9442 41.4508 73.0103 41.6901 73.0969 41.8906V42H71.7776C71.7138 41.8542 71.6636 41.6605 71.6272 41.4189C71.5907 41.1729 71.5725 40.945 71.5725 40.7354ZM71.7912 37.5156L71.8049 38.4043H70.5266C70.1666 38.4043 69.8453 38.4339 69.5627 38.4932C69.2802 38.5479 69.0432 38.6322 68.8518 38.7461C68.6604 38.86 68.5145 39.0036 68.4143 39.1768C68.314 39.3454 68.2639 39.5436 68.2639 39.7715C68.2639 40.0039 68.3163 40.2158 68.4211 40.4072C68.5259 40.5986 68.6832 40.7513 68.8928 40.8652C69.107 40.9746 69.369 41.0293 69.6789 41.0293C70.0663 41.0293 70.4081 40.9473 70.7043 40.7832C71.0005 40.6191 71.2352 40.4186 71.4084 40.1816C71.5861 39.9447 71.6819 39.7145 71.6955 39.4912L72.2356 40.0996C72.2037 40.291 72.1171 40.5029 71.9758 40.7354C71.8345 40.9678 71.6454 41.1911 71.4084 41.4053C71.176 41.6149 70.898 41.7904 70.5744 41.9316C70.2554 42.0684 69.8954 42.1367 69.4944 42.1367C68.9931 42.1367 68.5533 42.0387 68.175 41.8428C67.8013 41.6468 67.5097 41.3848 67.3 41.0566C67.0949 40.724 66.9924 40.3525 66.9924 39.9424C66.9924 39.5459 67.0699 39.1973 67.2248 38.8965C67.3798 38.5911 67.6031 38.3382 67.8947 38.1377C68.1864 37.9326 68.5373 37.7777 68.9475 37.6729C69.3576 37.568 69.8156 37.5156 70.3215 37.5156H71.7912ZM79.1978 40.291V34.6035H80.4693V42H79.2593L79.1978 40.291ZM79.437 38.7324L79.9634 38.7188C79.9634 39.2109 79.911 39.6667 79.8062 40.0859C79.7059 40.5007 79.5418 40.8607 79.314 41.166C79.0861 41.4714 78.7876 41.7106 78.4185 41.8838C78.0493 42.0524 77.6004 42.1367 77.0718 42.1367C76.7118 42.1367 76.3814 42.0843 76.0806 41.9795C75.7844 41.8747 75.5292 41.7129 75.315 41.4941C75.1008 41.2754 74.9344 40.9906 74.8159 40.6396C74.702 40.2887 74.645 39.8672 74.645 39.375V34.6035H75.9097V39.3887C75.9097 39.7214 75.9461 39.9971 76.0191 40.2158C76.0965 40.43 76.1991 40.6009 76.3267 40.7285C76.4588 40.8516 76.6047 40.9382 76.7642 40.9883C76.9282 41.0384 77.0969 41.0635 77.27 41.0635C77.8078 41.0635 78.2339 40.9609 78.5484 40.7559C78.8628 40.5462 79.0884 40.266 79.2251 39.915C79.3664 39.5596 79.437 39.1654 79.437 38.7324ZM83.5076 35.7656V42H82.243V34.6035H83.4735L83.5076 35.7656ZM85.8182 34.5625L85.8114 35.7383C85.7065 35.7155 85.6063 35.7018 85.5106 35.6973C85.4194 35.6882 85.3146 35.6836 85.1961 35.6836C84.9045 35.6836 84.647 35.7292 84.4237 35.8203C84.2003 35.9115 84.0112 36.0391 83.8563 36.2031C83.7013 36.3672 83.5783 36.5632 83.4871 36.791C83.4005 37.0143 83.3436 37.2604 83.3162 37.5293L82.9608 37.7344C82.9608 37.2878 83.0041 36.8685 83.0906 36.4766C83.1818 36.0846 83.3208 35.7383 83.5076 35.4375C83.6945 35.1322 83.9315 34.8952 84.2186 34.7266C84.5102 34.5534 84.8566 34.4668 85.2576 34.4668C85.3488 34.4668 85.4536 34.4782 85.5721 34.501C85.6906 34.5192 85.7726 34.5397 85.8182 34.5625ZM90.921 40.7354V36.9277C90.921 36.6361 90.8618 36.3831 90.7433 36.1689C90.6294 35.9502 90.4562 35.7816 90.2238 35.6631C89.9913 35.5446 89.7042 35.4854 89.3624 35.4854C89.0434 35.4854 88.7631 35.54 88.5216 35.6494C88.2846 35.7588 88.0978 35.9023 87.9611 36.0801C87.8289 36.2578 87.7628 36.4492 87.7628 36.6543H86.4982C86.4982 36.39 86.5665 36.1279 86.7033 35.8682C86.84 35.6084 87.0359 35.3737 87.2911 35.1641C87.5509 34.9499 87.8608 34.7812 88.2208 34.6582C88.5854 34.5306 88.991 34.4668 89.4376 34.4668C89.9754 34.4668 90.4493 34.5579 90.8595 34.7402C91.2742 34.9225 91.5978 35.1982 91.8302 35.5674C92.0672 35.932 92.1857 36.39 92.1857 36.9414V40.3867C92.1857 40.6328 92.2062 40.8949 92.2472 41.1729C92.2928 41.4508 92.3588 41.6901 92.4454 41.8906V42H91.1261C91.0623 41.8542 91.0122 41.6605 90.9757 41.4189C90.9393 41.1729 90.921 40.945 90.921 40.7354ZM91.1398 37.5156L91.1534 38.4043H89.8751C89.5151 38.4043 89.1938 38.4339 88.9113 38.4932C88.6287 38.5479 88.3917 38.6322 88.2003 38.7461C88.0089 38.86 87.8631 39.0036 87.7628 39.1768C87.6626 39.3454 87.6124 39.5436 87.6124 39.7715C87.6124 40.0039 87.6648 40.2158 87.7697 40.4072C87.8745 40.5986 88.0317 40.7513 88.2413 40.8652C88.4555 40.9746 88.7176 41.0293 89.0275 41.0293C89.4148 41.0293 89.7566 40.9473 90.0529 40.7832C90.3491 40.6191 90.5838 40.4186 90.757 40.1816C90.9347 39.9447 91.0304 39.7145 91.0441 39.4912L91.5841 40.0996C91.5522 40.291 91.4656 40.5029 91.3243 40.7354C91.1831 40.9678 90.9939 41.1911 90.757 41.4053C90.5245 41.6149 90.2465 41.7904 89.923 41.9316C89.604 42.0684 89.2439 42.1367 88.8429 42.1367C88.3416 42.1367 87.9018 42.0387 87.5236 41.8428C87.1499 41.6468 86.8582 41.3848 86.6486 41.0566C86.4435 40.724 86.3409 40.3525 86.3409 39.9424C86.3409 39.5459 86.4184 39.1973 86.5734 38.8965C86.7283 38.5911 86.9516 38.3382 87.2433 38.1377C87.535 37.9326 87.8859 37.7777 88.296 37.6729C88.7062 37.568 89.1642 37.5156 89.67 37.5156H91.1398ZM95.2856 36.1826V42H94.0209V34.6035H95.2172L95.2856 36.1826ZM94.9848 38.0215L94.4584 38.001C94.463 37.4951 94.5382 37.028 94.684 36.5996C94.8299 36.1667 95.0349 35.7907 95.2993 35.4717C95.5636 35.1527 95.878 34.9066 96.2426 34.7334C96.6118 34.5557 97.0196 34.4668 97.4662 34.4668C97.8308 34.4668 98.159 34.5169 98.4506 34.6172C98.7423 34.7129 98.9907 34.8678 99.1957 35.082C99.4054 35.2962 99.5649 35.5742 99.6743 35.916C99.7836 36.2533 99.8383 36.6657 99.8383 37.1533V42H98.5668V37.1396C98.5668 36.7523 98.5099 36.4424 98.3959 36.21C98.282 35.973 98.1157 35.8021 97.8969 35.6973C97.6782 35.5879 97.4093 35.5332 97.0903 35.5332C96.7758 35.5332 96.4887 35.5993 96.2289 35.7314C95.9737 35.8636 95.7527 36.0459 95.5659 36.2783C95.3836 36.5107 95.24 36.7773 95.1352 37.0781C95.0349 37.3743 94.9848 37.6888 94.9848 38.0215ZM104.702 34.6035V35.5742H100.703V34.6035H104.702ZM102.056 32.8057H103.321V40.168C103.321 40.4186 103.36 40.6077 103.437 40.7354C103.515 40.863 103.615 40.9473 103.738 40.9883C103.861 41.0293 103.993 41.0498 104.135 41.0498C104.239 41.0498 104.349 41.0407 104.463 41.0225C104.581 40.9997 104.67 40.9814 104.729 40.9678L104.736 42C104.636 42.0319 104.504 42.0615 104.34 42.0889C104.18 42.1208 103.986 42.1367 103.759 42.1367C103.449 42.1367 103.164 42.0752 102.904 41.9521C102.644 41.8291 102.437 41.624 102.282 41.3369C102.132 41.0452 102.056 40.6533 102.056 40.1611V32.8057ZM111.189 36.4766L112.679 35.417C112.966 35.221 113.187 35.0251 113.342 34.8291C113.502 34.6286 113.581 34.3551 113.581 34.0088C113.581 33.7399 113.477 33.4961 113.267 33.2773C113.057 33.054 112.761 32.9424 112.378 32.9424C112.114 32.9424 111.891 33.0039 111.708 33.127C111.526 33.25 111.389 33.4141 111.298 33.6191C111.207 33.8197 111.161 34.0407 111.161 34.2822C111.161 34.4873 111.212 34.6992 111.312 34.918C111.412 35.1367 111.551 35.3646 111.729 35.6016C111.907 35.8385 112.109 36.0892 112.337 36.3535L117.047 42H115.53L111.667 37.3789C111.326 36.9779 111.02 36.611 110.751 36.2783C110.482 35.9411 110.271 35.6152 110.116 35.3008C109.965 34.9863 109.89 34.6605 109.89 34.3232C109.89 33.8037 109.993 33.3662 110.198 33.0107C110.407 32.6507 110.699 32.3773 111.073 32.1904C111.446 32.0036 111.884 31.9102 112.385 31.9102C112.873 31.9102 113.292 32.0081 113.643 32.2041C113.998 32.3955 114.272 32.6507 114.463 32.9697C114.655 33.2842 114.75 33.6305 114.75 34.0088C114.75 34.3278 114.693 34.6149 114.579 34.8701C114.466 35.1208 114.306 35.3509 114.101 35.5605C113.9 35.7702 113.666 35.9753 113.397 36.1758L111.421 37.6455C111.093 37.887 110.854 38.1172 110.703 38.3359C110.553 38.5547 110.455 38.7484 110.41 38.917C110.368 39.0856 110.348 39.2201 110.348 39.3203C110.348 39.6439 110.419 39.9401 110.56 40.209C110.701 40.4779 110.915 40.6943 111.202 40.8584C111.494 41.0179 111.859 41.0977 112.296 41.0977C112.679 41.0977 113.05 41.0111 113.41 40.8379C113.775 40.6602 114.101 40.4095 114.388 40.0859C114.675 39.7578 114.903 39.3682 115.072 38.917C115.245 38.4613 115.331 37.9577 115.331 37.4062H116.466C116.466 37.8574 116.423 38.2835 116.336 38.6846C116.25 39.0856 116.115 39.4593 115.933 39.8057C115.755 40.1475 115.527 40.4596 115.249 40.7422C115.208 40.7832 115.176 40.8311 115.154 40.8857C115.131 40.9404 115.099 40.9883 115.058 41.0293C114.716 41.3984 114.295 41.6764 113.793 41.8633C113.297 42.0456 112.798 42.1367 112.296 42.1367C111.635 42.1367 111.063 42.016 110.58 41.7744C110.102 41.5329 109.733 41.2002 109.473 40.7764C109.213 40.3525 109.083 39.8672 109.083 39.3203C109.083 38.901 109.172 38.5319 109.35 38.2129C109.532 37.8939 109.781 37.5954 110.095 37.3174C110.414 37.0394 110.779 36.7591 111.189 36.4766ZM122.488 36.0254V44.8438H121.217V34.6035H122.379L122.488 36.0254ZM127.472 38.2402V38.3838C127.472 38.9215 127.408 39.4206 127.28 39.8809C127.153 40.3366 126.966 40.7331 126.72 41.0703C126.478 41.4076 126.18 41.6696 125.824 41.8564C125.469 42.0433 125.061 42.1367 124.601 42.1367C124.131 42.1367 123.716 42.0592 123.356 41.9043C122.996 41.7493 122.691 41.5238 122.44 41.2275C122.19 40.9313 121.989 40.5758 121.839 40.1611C121.693 39.7464 121.593 39.2793 121.538 38.7598V37.9941C121.593 37.4473 121.695 36.9574 121.846 36.5244C121.996 36.0915 122.194 35.7223 122.44 35.417C122.691 35.1071 122.994 34.8724 123.35 34.7129C123.705 34.5488 124.115 34.4668 124.58 34.4668C125.045 34.4668 125.457 34.5579 125.817 34.7402C126.177 34.918 126.48 35.1732 126.727 35.5059C126.973 35.8385 127.157 36.2373 127.28 36.7021C127.408 37.1624 127.472 37.6751 127.472 38.2402ZM126.2 38.3838V38.2402C126.2 37.8711 126.161 37.5247 126.084 37.2012C126.006 36.873 125.886 36.5859 125.722 36.3398C125.562 36.0892 125.357 35.8932 125.106 35.752C124.856 35.6061 124.557 35.5332 124.211 35.5332C123.892 35.5332 123.614 35.5879 123.377 35.6973C123.144 35.8066 122.946 35.9548 122.782 36.1416C122.618 36.3239 122.484 36.5335 122.379 36.7705C122.279 37.0029 122.203 37.2445 122.153 37.4951V39.2656C122.244 39.5846 122.372 39.8854 122.536 40.168C122.7 40.446 122.919 40.6715 123.192 40.8447C123.466 41.0133 123.81 41.0977 124.225 41.0977C124.566 41.0977 124.86 41.027 125.106 40.8857C125.357 40.7399 125.562 40.5417 125.722 40.291C125.886 40.0404 126.006 39.7533 126.084 39.4297C126.161 39.1016 126.2 38.7529 126.2 38.3838ZM133.292 40.7354V36.9277C133.292 36.6361 133.233 36.3831 133.115 36.1689C133.001 35.9502 132.827 35.7816 132.595 35.6631C132.363 35.5446 132.075 35.4854 131.734 35.4854C131.415 35.4854 131.134 35.54 130.893 35.6494C130.656 35.7588 130.469 35.9023 130.332 36.0801C130.2 36.2578 130.134 36.4492 130.134 36.6543H128.869C128.869 36.39 128.938 36.1279 129.074 35.8682C129.211 35.6084 129.407 35.3737 129.662 35.1641C129.922 34.9499 130.232 34.7812 130.592 34.6582C130.957 34.5306 131.362 34.4668 131.809 34.4668C132.347 34.4668 132.821 34.5579 133.231 34.7402C133.645 34.9225 133.969 35.1982 134.201 35.5674C134.438 35.932 134.557 36.39 134.557 36.9414V40.3867C134.557 40.6328 134.577 40.8949 134.618 41.1729C134.664 41.4508 134.73 41.6901 134.817 41.8906V42H133.497C133.434 41.8542 133.383 41.6605 133.347 41.4189C133.31 41.1729 133.292 40.945 133.292 40.7354ZM133.511 37.5156L133.525 38.4043H132.246C131.886 38.4043 131.565 38.4339 131.282 38.4932C131 38.5479 130.763 38.6322 130.572 38.7461C130.38 38.86 130.234 39.0036 130.134 39.1768C130.034 39.3454 129.984 39.5436 129.984 39.7715C129.984 40.0039 130.036 40.2158 130.141 40.4072C130.246 40.5986 130.403 40.7513 130.613 40.8652C130.827 40.9746 131.089 41.0293 131.399 41.0293C131.786 41.0293 132.128 40.9473 132.424 40.7832C132.72 40.6191 132.955 40.4186 133.128 40.1816C133.306 39.9447 133.402 39.7145 133.415 39.4912L133.955 40.0996C133.923 40.291 133.837 40.5029 133.696 40.7354C133.554 40.9678 133.365 41.1911 133.128 41.4053C132.896 41.6149 132.618 41.7904 132.294 41.9316C131.975 42.0684 131.615 42.1367 131.214 42.1367C130.713 42.1367 130.273 42.0387 129.895 41.8428C129.521 41.6468 129.229 41.3848 129.02 41.0566C128.815 40.724 128.712 40.3525 128.712 39.9424C128.712 39.5459 128.79 39.1973 128.945 38.8965C129.1 38.5911 129.323 38.3382 129.615 38.1377C129.906 37.9326 130.257 37.7777 130.667 37.6729C131.077 37.568 131.535 37.5156 132.041 37.5156H133.511ZM140.699 40.0381C140.699 39.8558 140.658 39.6872 140.576 39.5322C140.498 39.3727 140.336 39.2292 140.09 39.1016C139.849 38.9694 139.484 38.8555 138.997 38.7598C138.586 38.6732 138.215 38.5706 137.882 38.4521C137.554 38.3337 137.274 38.1901 137.042 38.0215C136.814 37.8529 136.638 37.6546 136.515 37.4268C136.392 37.1989 136.331 36.9323 136.331 36.627C136.331 36.3353 136.394 36.0596 136.522 35.7998C136.654 35.54 136.839 35.3099 137.076 35.1094C137.317 34.9089 137.607 34.7516 137.944 34.6377C138.281 34.5238 138.657 34.4668 139.072 34.4668C139.664 34.4668 140.17 34.5716 140.589 34.7812C141.009 34.9909 141.33 35.2712 141.553 35.6221C141.777 35.9684 141.888 36.3535 141.888 36.7773H140.624C140.624 36.5723 140.562 36.374 140.439 36.1826C140.321 35.9867 140.145 35.8249 139.913 35.6973C139.685 35.5697 139.405 35.5059 139.072 35.5059C138.721 35.5059 138.436 35.5605 138.217 35.6699C138.003 35.7747 137.846 35.9092 137.746 36.0732C137.65 36.2373 137.602 36.4105 137.602 36.5928C137.602 36.7295 137.625 36.8525 137.67 36.9619C137.721 37.0667 137.807 37.1647 137.93 37.2559C138.053 37.3424 138.226 37.4245 138.45 37.502C138.673 37.5794 138.958 37.6569 139.304 37.7344C139.91 37.8711 140.409 38.0352 140.801 38.2266C141.193 38.418 141.485 38.6527 141.676 38.9307C141.868 39.2087 141.963 39.5459 141.963 39.9424C141.963 40.266 141.895 40.5622 141.758 40.8311C141.626 41.0999 141.433 41.3324 141.177 41.5283C140.927 41.7197 140.626 41.8701 140.275 41.9795C139.929 42.0843 139.539 42.1367 139.106 42.1367C138.454 42.1367 137.903 42.0205 137.452 41.7881C137.001 41.5557 136.659 41.2549 136.426 40.8857C136.194 40.5166 136.078 40.127 136.078 39.7168H137.349C137.367 40.0632 137.468 40.3389 137.65 40.5439C137.832 40.7445 138.056 40.888 138.32 40.9746C138.584 41.0566 138.846 41.0977 139.106 41.0977C139.452 41.0977 139.742 41.0521 139.974 40.9609C140.211 40.8698 140.391 40.7445 140.514 40.585C140.637 40.4255 140.699 40.2432 140.699 40.0381ZM146.567 34.6035V35.5742H142.568V34.6035H146.567ZM143.922 32.8057H145.186V40.168C145.186 40.4186 145.225 40.6077 145.303 40.7354C145.38 40.863 145.48 40.9473 145.603 40.9883C145.726 41.0293 145.859 41.0498 146 41.0498C146.105 41.0498 146.214 41.0407 146.328 41.0225C146.446 40.9997 146.535 40.9814 146.595 40.9678L146.601 42C146.501 42.0319 146.369 42.0615 146.205 42.0889C146.045 42.1208 145.852 42.1367 145.624 42.1367C145.314 42.1367 145.029 42.0752 144.769 41.9521C144.51 41.8291 144.302 41.624 144.147 41.3369C143.997 41.0452 143.922 40.6533 143.922 40.1611V32.8057ZM149.161 35.7656V42H147.897V34.6035H149.127L149.161 35.7656ZM151.472 34.5625L151.465 35.7383C151.36 35.7155 151.26 35.7018 151.164 35.6973C151.073 35.6882 150.968 35.6836 150.85 35.6836C150.558 35.6836 150.301 35.7292 150.077 35.8203C149.854 35.9115 149.665 36.0391 149.51 36.2031C149.355 36.3672 149.232 36.5632 149.141 36.791C149.054 37.0143 148.997 37.2604 148.97 37.5293L148.614 37.7344C148.614 37.2878 148.658 36.8685 148.744 36.4766C148.835 36.0846 148.974 35.7383 149.161 35.4375C149.348 35.1322 149.585 34.8952 149.872 34.7266C150.164 34.5534 150.51 34.4668 150.911 34.4668C151.002 34.4668 151.107 34.4782 151.226 34.501C151.344 34.5192 151.426 34.5397 151.472 34.5625ZM154.688 41.2344L156.746 34.6035H158.099L155.132 43.1416C155.064 43.3239 154.973 43.5199 154.859 43.7295C154.749 43.9437 154.608 44.1465 154.435 44.3379C154.262 44.5293 154.052 44.6842 153.806 44.8027C153.565 44.9258 153.275 44.9873 152.938 44.9873C152.838 44.9873 152.71 44.9736 152.555 44.9463C152.4 44.9189 152.291 44.8962 152.227 44.8779L152.22 43.8525C152.257 43.8571 152.314 43.8617 152.391 43.8662C152.473 43.8753 152.53 43.8799 152.562 43.8799C152.849 43.8799 153.093 43.8411 153.293 43.7637C153.494 43.6908 153.663 43.5654 153.799 43.3877C153.941 43.2145 154.061 42.9753 154.162 42.6699L154.688 41.2344ZM153.177 34.6035L155.098 40.3457L155.426 41.6787L154.517 42.1436L151.796 34.6035H153.177Z" fill="#F2F2F2"/>
<path d="M167 39H197" stroke="#D36306" stroke-opacity="0.8" stroke-width="1.2" stroke-linecap="round"/>
<path d="M1 39H31" stroke="#D36306" stroke-opacity="0.8" stroke-width="1.2" stroke-linecap="round"/>
</svg>
