<svg width="20" height="20" viewBox="0 0 20 20" fill="none" xmlns="http://www.w3.org/2000/svg">
<mask id="mask0_163_174" style="mask-type:alpha" maskUnits="userSpaceOnUse" x="0" y="0" width="20" height="20">
<rect width="20" height="20" fill="#D9D9D9"/>
</mask>
<g mask="url(#mask0_163_174)">
<path d="M7.93304 13.1923C6.50997 13.1923 5.30485 12.6987 4.31768 11.7115C3.3305 10.7243 2.83691 9.51919 2.83691 8.09613C2.83691 6.67306 3.3305 5.46793 4.31768 4.48075C5.30485 3.49358 6.50997 3 7.93304 3C9.35611 3 10.5612 3.49358 11.5484 4.48075C12.5356 5.46793 13.0292 6.67306 13.0292 8.09613C13.0292 8.69121 12.9293 9.25958 12.7295 9.80125C12.5297 10.3429 12.2631 10.8141 11.9298 11.2147L16.7247 16.0096C16.8401 16.125 16.8991 16.27 16.9018 16.4447C16.9045 16.6194 16.8454 16.7671 16.7247 16.8878C16.604 17.0085 16.4576 17.0689 16.2856 17.0689C16.1136 17.0689 15.9672 17.0085 15.8465 16.8878L11.0516 12.0929C10.635 12.4369 10.1558 12.7061 9.61412 12.9006C9.07246 13.095 8.5121 13.1923 7.93304 13.1923ZM7.93304 11.9423C9.00676 11.9423 9.91622 11.5697 10.6614 10.8245C11.4066 10.0793 11.7792 9.16985 11.7792 8.09613C11.7792 7.0224 11.4066 6.11295 10.6614 5.36775C9.91622 4.62256 9.00676 4.24996 7.93304 4.24996C6.85932 4.24996 5.94986 4.62256 5.20466 5.36775C4.45948 6.11295 4.08689 7.0224 4.08689 8.09613C4.08689 9.16985 4.45948 10.0793 5.20466 10.8245C5.94986 11.5697 6.85932 11.9423 7.93304 11.9423Z" fill="#F2F2F2" fill-opacity="0.3"/>
</g>
</svg>
