<svg width="24" height="24" viewBox="0 0 24 24" fill="none" xmlns="http://www.w3.org/2000/svg">
<mask id="mask0_109_626" style="mask-type:alpha" maskUnits="userSpaceOnUse" x="0" y="0" width="24" height="24">
<rect width="24" height="24" fill="#D9D9D9"/>
</mask>
<g mask="url(#mask0_109_626)">
<path d="M12.0022 15.5769C13.1353 15.5769 14.0977 15.1803 14.8894 14.3872C15.681 13.594 16.0769 12.6308 16.0769 11.4977C16.0769 10.3646 15.6803 9.40227 14.8871 8.61061C14.0939 7.81894 13.1308 7.42311 11.9977 7.42311C10.8646 7.42311 9.90223 7.81969 9.11056 8.61286C8.31889 9.40604 7.92306 10.3692 7.92306 11.5023C7.92306 12.6354 8.31964 13.5977 9.11281 14.3894C9.90599 15.1811 10.8691 15.5769 12.0022 15.5769ZM12 14.2C11.25 14.2 10.6125 13.9375 10.0875 13.4125C9.56246 12.8875 9.29996 12.25 9.29996 11.5C9.29996 10.75 9.56246 10.1125 10.0875 9.58751C10.6125 9.06251 11.25 8.80001 12 8.80001C12.75 8.80001 13.3875 9.06251 13.9125 9.58751C14.4375 10.1125 14.7 10.75 14.7 11.5C14.7 12.25 14.4375 12.8875 13.9125 13.4125C13.3875 13.9375 12.75 14.2 12 14.2ZM12 18.5C9.89484 18.5 7.96953 17.9384 6.22403 16.8154C4.47852 15.6923 3.08525 14.2147 2.04423 12.3827C1.9609 12.2391 1.9 12.0944 1.86153 11.9486C1.82307 11.8027 1.80383 11.653 1.80383 11.4995C1.80383 11.346 1.82307 11.1965 1.86153 11.051C1.9 10.9055 1.9609 10.7609 2.04423 10.6173C3.08525 8.78528 4.47852 7.30772 6.22403 6.18466C7.96953 5.06157 9.89484 4.50003 12 4.50003C14.1051 4.50003 16.0304 5.06157 17.7759 6.18466C19.5214 7.30772 20.9147 8.78528 21.9557 10.6173C22.039 10.7609 22.0999 10.9056 22.1384 11.0515C22.1768 11.1973 22.1961 11.347 22.1961 11.5005C22.1961 11.654 22.1768 11.8035 22.1384 11.949C22.0999 12.0945 22.039 12.2391 21.9557 12.3827C20.9147 14.2147 19.5214 15.6923 17.7759 16.8154C16.0304 17.9384 14.1051 18.5 12 18.5ZM12 17C13.8833 17 15.6125 16.5042 17.1875 15.5125C18.7625 14.5208 19.9666 13.1833 20.8 11.5C19.9666 9.81667 18.7625 8.47917 17.1875 7.48751C15.6125 6.49584 13.8833 6.00001 12 6.00001C10.1166 6.00001 8.38746 6.49584 6.81246 7.48751C5.23746 8.47917 4.03329 9.81667 3.19996 11.5C4.03329 13.1833 5.23746 14.5208 6.81246 15.5125C8.38746 16.5042 10.1166 17 12 17Z" fill="#D36306"/>
</g>
</svg>
