<svg width="47" height="30" viewBox="0 0 47 30" fill="none" xmlns="http://www.w3.org/2000/svg">
<path d="M27.0722 4.41084e-06C24.8239 0.00435339 22.6172 0.607108 20.6789 1.74636C18.7406 2.88561 17.1405 4.52029 16.043 6.48249C15.0985 6.02291 14.0622 5.78344 13.0119 5.7821C11.3649 5.78628 9.77292 6.37544 8.52002 7.44447C7.26711 8.5135 6.43474 9.99288 6.17139 11.6187C4.43217 12.3467 2.94682 13.5724 1.90184 15.1417C0.856858 16.7111 0.298839 18.5542 0.297852 20.4397C0.299915 22.9766 1.30942 25.4089 3.10441 27.2017C4.89939 28.9945 7.33289 30.001 9.86984 30C10.2714 29.996 10.6723 29.9667 11.0702 29.9125H39.1247C43.6091 29.3833 46.9866 25.5195 46.9905 20.9844V20.9669C46.9889 18.8903 46.2643 16.8791 44.9411 15.2786C43.6179 13.6782 41.7788 12.5884 39.7395 12.1965C39.6186 8.91868 38.2307 5.81561 35.8681 3.54041C33.5054 1.2652 30.3522 -0.00272915 27.0722 4.41084e-06Z" fill="#1877F2"/>
</svg>
