<svg width="24" height="25" viewBox="0 0 24 25" fill="none" xmlns="http://www.w3.org/2000/svg">
<mask id="mask0_109_627" style="mask-type:alpha" maskUnits="userSpaceOnUse" x="0" y="0" width="24" height="25">
<rect y="0.62854" width="24" height="24" fill="#D9D9D9"/>
</mask>
<g mask="url(#mask0_109_627)">
<path d="M15.773 13.6016L14.65 12.4786C14.8205 11.5888 14.5865 10.8298 13.948 10.2016C13.3096 9.57343 12.5435 9.3324 11.65 9.47855L10.5269 8.3555C10.759 8.2478 10.9977 8.17024 11.2432 8.1228C11.4887 8.07537 11.741 8.05165 12 8.05165C13.1346 8.05165 14.0977 8.44749 14.8894 9.23915C15.681 10.0308 16.0769 10.994 16.0769 12.1286C16.0769 12.3875 16.0547 12.6398 16.0105 12.8853C15.9663 13.1308 15.8871 13.3696 15.773 13.6016ZM18.9538 16.7132L17.85 15.6786C18.4833 15.1952 19.05 14.6577 19.55 14.0661C20.05 13.4744 20.4666 12.8286 20.8 12.1286C19.9666 10.4452 18.7625 9.10772 17.1875 8.11605C15.6125 7.12439 13.8833 6.62855 12 6.62855C11.5166 6.62855 11.0458 6.66189 10.5875 6.72855C10.1291 6.79522 9.66662 6.89522 9.19995 7.02855L8.0346 5.8632C8.67049 5.61192 9.31888 5.42666 9.97978 5.30743C10.6407 5.18819 11.3141 5.12858 12 5.12858C14.1487 5.12858 16.1224 5.68691 17.9211 6.80358C19.7198 7.92024 21.1031 9.43114 22.0711 11.3363C22.1377 11.4632 22.1861 11.5911 22.2163 11.7199C22.2464 11.8488 22.2615 11.985 22.2615 12.1286C22.2615 12.2721 22.249 12.4084 22.224 12.5372C22.199 12.6661 22.1531 12.7939 22.0865 12.9209C21.7326 13.6734 21.2884 14.3683 20.7538 15.0055C20.2192 15.6426 19.6192 16.2119 18.9538 16.7132ZM12 19.1285C9.89484 19.1285 7.96536 18.566 6.21153 17.441C4.45768 16.316 3.06344 14.8343 2.02883 12.9959C1.94549 12.8689 1.8846 12.7311 1.84615 12.5824C1.80769 12.4337 1.78845 12.2824 1.78845 12.1286C1.78845 11.9747 1.80512 11.826 1.83845 11.6824C1.87179 11.5388 1.93012 11.3984 2.01345 11.2613C2.38525 10.5818 2.80641 9.93465 3.27693 9.3199C3.74744 8.70515 4.28847 8.15419 4.9 7.66703L2.6423 5.39393C2.50384 5.24521 2.43557 5.06861 2.4375 4.86413C2.43942 4.65964 2.51281 4.48497 2.65768 4.3401C2.80254 4.19523 2.97819 4.1228 3.1846 4.1228C3.391 4.1228 3.56664 4.19523 3.7115 4.3401L20.2884 20.917C20.4269 21.0555 20.5002 21.2269 20.5086 21.4314C20.5169 21.6359 20.4435 21.8157 20.2884 21.9708C20.1435 22.1157 19.9679 22.1881 19.7615 22.1881C19.5551 22.1881 19.3794 22.1157 19.2346 21.9708L15.7154 18.4824C15.1256 18.7106 14.5195 18.8753 13.8971 18.9766C13.2746 19.0779 12.6423 19.1285 12 19.1285ZM5.95383 8.72083C5.36793 9.17339 4.84132 9.68526 4.374 10.2564C3.90669 10.8276 3.51534 11.4516 3.19995 12.1286C4.03329 13.8119 5.23745 15.1494 6.81245 16.1411C8.38745 17.1327 10.1166 17.6286 12 17.6286C12.4295 17.6286 12.8522 17.5997 13.2683 17.542C13.6843 17.4843 14.0974 17.3952 14.5077 17.2747L13.2423 15.9785C13.0397 16.067 12.8375 16.1269 12.6355 16.1583C12.4336 16.1897 12.2218 16.2055 12 16.2055C10.8654 16.2055 9.90222 15.8096 9.11055 15.018C8.31889 14.2263 7.92305 13.2632 7.92305 12.1286C7.92305 11.9068 7.94036 11.6949 7.97498 11.493C8.00959 11.291 8.06793 11.0888 8.14998 10.8862L5.95383 8.72083Z" fill="#D36306"/>
</g>
</svg>
